<?xml version="1.0" standalone="no"?><svg xmlns="http://www.w3.org/2000/svg" viewBox="0 0 1440 320"><path fill="#0099ff" fill-opacity="1" d="M0,0L30,5.3C60,11,120,21,180,64C240,107,300,181,360,218.7C420,256,480,256,540,240C600,224,660,192,720,197.3C780,203,840,245,900,266.7C960,288,1020,288,1080,261.3C1140,235,1200,181,1260,160C1320,139,1380,149,1410,154.7L1440,160L1440,320L1410,320C1380,320,1320,320,1260,320C1200,320,1140,320,1080,320C1020,320,960,320,900,320C840,320,780,320,720,320C660,320,600,320,540,320C480,320,420,320,360,320C300,320,240,320,180,320C120,320,60,320,30,320L0,320Z"></path></svg>